<svg version="1.1" id="Layer_1" xmlns="http://www.w3.org/2000/svg" xmlns:xlink="http://www.w3.org/1999/xlink" x="0px" y="0px"
	 width="100%" viewBox="0 0 1024 1024" enable-background="new 0 0 1024 1024" xml:space="preserve">
<path fill="#000000" opacity="1.000000" stroke="none" 
	d="
M330.354767,525.662292 
	C332.503448,546.893005 338.386169,566.843628 343.582642,586.953491 
	C346.052917,596.513123 344.491608,598.864380 334.931030,600.716858 
	C314.757599,604.625854 294.580750,604.434448 274.443481,600.366943 
	C269.286865,599.325378 267.191895,596.848755 267.855652,591.617798 
	C268.396393,587.356079 269.397278,583.094971 270.709137,578.998535 
	C277.999603,556.232666 282.751495,532.978088 283.470215,509.068848 
	C284.023560,490.662567 280.837189,472.615601 276.343506,454.817902 
	C274.471741,447.404541 272.290344,440.068237 270.182831,432.716064 
	C269.355988,429.831665 268.467743,426.985687 268.474518,423.935669 
	C268.482574,420.322479 269.731598,418.111725 273.720367,417.381256 
	C292.560974,413.930847 311.441315,413.909546 330.383026,416.209290 
	C333.023926,416.529938 335.678711,416.814423 338.284393,417.330872 
	C343.609131,418.386200 345.387390,420.769073 344.410889,426.161652 
	C343.642883,430.402863 342.519318,434.607910 341.204529,438.717316 
	C332.195007,466.877197 327.253876,495.532166 330.354767,525.662292 
M322.661926,525.621460 
	C319.925903,492.050964 325.653015,459.430725 334.646881,426.818115 
	C319.365601,423.787109 304.911652,422.418396 290.283691,425.089783 
	C278.664825,427.211639 281.090088,426.466431 283.049164,435.795105 
	C286.913910,454.198273 290.652832,472.593933 291.359711,491.475494 
	C292.571381,523.840698 288.134552,555.521423 280.023041,586.758606 
	C279.258850,589.701477 279.765228,590.975830 282.806488,591.719116 
	C297.239014,595.246277 311.743073,595.973633 326.388336,593.342468 
	C333.898773,591.993164 334.025208,591.956177 332.074097,584.586853 
	C327.033905,565.550110 323.697266,546.249207 322.661926,525.621460 
z"/>
<path fill="#000000" opacity="1.000000" stroke="none" 
	d="
M685.900391,446.689758 
	C690.876892,446.081177 692.510071,447.865753 692.424683,452.531067 
	C692.162598,466.858917 692.331848,481.194458 692.308350,495.526947 
	C692.278320,513.820740 683.131042,524.597229 664.948608,527.040283 
	C654.454773,528.450256 644.425476,526.170227 634.934204,521.471985 
	C631.659485,519.850952 630.365784,517.839233 632.617371,514.411377 
	C634.695129,511.248260 635.176941,507.177490 638.381958,504.132324 
	C647.162048,508.430023 656.171021,513.061462 665.991577,507.112823 
	C669.887085,504.753143 670.949524,500.680969 670.966064,495.009949 
	C665.100159,501.033173 658.596802,503.122406 651.115662,502.369812 
	C643.728577,501.626617 637.741211,498.514618 633.335754,492.533997 
	C624.900452,481.082611 625.505371,463.583862 634.626038,453.578949 
	C643.388062,443.967468 656.399597,442.895996 669.846191,450.805481 
	C673.380249,443.340729 680.137573,447.925568 685.900391,446.689758 
M665.661499,483.426453 
	C666.394470,482.761017 667.237732,482.182526 667.841858,481.415619 
	C671.112122,477.264099 671.208801,471.045471 668.130249,467.121094 
	C665.255371,463.456268 658.970520,462.168457 654.523865,464.332977 
	C650.193176,466.441071 648.161316,471.580780 649.460876,477.140259 
	C650.976562,483.623932 657.124695,486.256592 665.661499,483.426453 
z"/>
<path fill="#000000" opacity="1.000000" stroke="none" 
	d="
M445.928833,467.895569 
	C443.258148,471.161774 442.379486,474.653870 442.407471,478.413483 
	C442.464447,486.069153 442.413483,493.729858 442.698669,501.377625 
	C442.832611,504.969269 441.803314,506.718262 437.979034,506.443665 
	C432.383728,506.041870 426.708588,507.622589 421.199280,505.909424 
	C420.141388,504.090088 420.650391,502.220062 420.630005,500.427155 
	C420.389465,479.290680 420.675110,458.154999 420.308411,437.012726 
	C420.051544,422.201752 419.650177,425.334412 431.910248,425.071564 
	C444.499481,424.801636 442.170044,424.629639 442.358215,435.408417 
	C442.450928,440.717102 442.374329,446.028778 442.374329,451.371368 
	C444.825195,451.848724 445.982971,450.121765 447.442657,449.234375 
	C463.751007,439.320282 481.885254,449.034058 482.288544,468.066345 
	C482.524811,479.215942 482.291412,490.375000 482.469818,501.526581 
	C482.528503,505.195618 481.197327,506.625580 477.522034,506.439819 
	C473.371033,506.229950 469.190308,506.223785 465.041718,506.462860 
	C461.186005,506.685089 460.338806,505.098236 460.463654,501.447693 
	C460.765015,492.635010 460.900177,483.790741 460.496521,474.987030 
	C460.083313,465.974792 453.274597,462.670105 445.928833,467.895569 
z"/>
<path fill="#000000" opacity="1.000000" stroke="none" 
	d="
M588.349609,465.310425 
	C582.571777,467.177704 580.457581,469.985840 580.360718,476.149017 
	C580.229858,484.473877 580.199280,492.804993 580.380432,501.127869 
	C580.461548,504.852783 579.478699,506.709656 575.346375,506.427338 
	C571.036621,506.132904 566.689270,506.289642 562.361694,506.391541 
	C559.430542,506.460571 558.189758,505.352325 558.229309,502.280426 
	C558.444092,485.632599 558.650146,468.982269 558.555359,452.334534 
	C558.530579,447.986420 559.832520,446.223114 564.254578,446.635498 
	C567.391602,446.928070 570.580322,446.774170 573.741272,446.673523 
	C577.351624,446.558624 580.759766,446.565430 580.146729,452.445740 
	C585.892944,448.604370 590.916199,445.599487 597.236511,445.577911 
	C610.402527,445.532928 619.389832,452.977173 620.090088,466.132263 
	C620.735291,478.255432 620.229065,490.438354 620.302734,502.594543 
	C620.319702,505.396240 619.052185,506.440460 616.356995,506.388367 
	C611.862305,506.301483 607.357300,506.212433 602.870300,506.419952 
	C599.077759,506.595337 597.923218,504.824341 597.948425,501.333954 
	C598.013428,492.342346 598.031982,483.346649 597.825562,474.358154 
	C597.669312,467.550446 595.522278,465.585144 588.349609,465.310425 
z"/>
<path fill="#000000" opacity="1.000000" stroke="none" 
	d="
M738.927734,507.271851 
	C724.489746,508.631714 712.248047,505.579742 704.419067,492.710907 
	C692.051636,472.381866 705.717346,446.882355 729.507935,445.662415 
	C746.331421,444.799744 759.548096,452.580414 764.171692,466.069153 
	C770.555420,484.693176 759.769836,502.584076 738.927734,507.271851 
M743.112915,480.455322 
	C744.526245,472.439697 741.968018,466.230408 736.535583,464.491119 
	C730.529541,462.568176 724.881470,465.296600 722.813293,471.119995 
	C720.380981,477.968750 723.278931,486.579620 728.637024,488.424438 
	C734.895508,490.579285 740.111633,487.932373 743.112915,480.455322 
z"/>
<path fill="#000000" opacity="1.000000" stroke="none" 
	d="
M490.674377,495.984314 
	C486.011932,482.074463 493.818512,471.827545 509.609894,470.769135 
	C513.758484,470.491119 517.938782,470.707397 522.103455,470.634399 
	C523.374146,470.612122 524.963745,470.932922 525.402832,469.162476 
	C525.772888,467.670471 524.787109,466.624756 523.777039,465.737091 
	C519.978149,462.398773 515.420105,462.916504 510.934967,463.405884 
	C509.301697,463.584076 507.742371,464.401703 506.108246,464.619629 
	C503.448547,464.974426 500.450867,468.788055 498.493896,466.079102 
	C495.854248,462.425201 494.522308,457.692139 493.882751,453.053894 
	C493.632294,451.237457 495.497650,450.681091 496.875397,450.173157 
	C507.693207,446.184814 518.758362,444.298645 530.199097,446.893677 
	C540.875183,449.315216 547.949890,459.115204 547.631836,472.320862 
	C547.402771,481.831604 548.072388,491.296600 548.031677,500.787750 
	C548.014709,504.739502 547.025330,506.733582 542.696655,506.413025 
	C539.050781,506.142975 535.364929,506.252991 531.704285,506.392120 
	C528.746765,506.504517 526.373962,506.059845 526.390503,502.290009 
	C510.455078,511.393494 497.730774,509.162567 490.674377,495.984314 
M516.549377,492.850281 
	C517.844971,492.604950 519.251160,492.601074 520.414856,492.067963 
	C523.629517,490.595306 526.346863,488.285583 525.531677,484.440887 
	C524.710876,480.569641 521.141479,482.810272 518.806702,482.300385 
	C518.175781,482.162567 517.480652,482.293335 516.817078,482.334961 
	C513.497681,482.543243 510.810181,483.854675 510.500519,487.446289 
	C510.199860,490.933533 512.571350,492.425079 516.549377,492.850281 
z"/>
<path fill="#000000" opacity="1.000000" stroke="none" 
	d="
M393.850342,462.133606 
	C391.038269,461.151825 388.533844,461.281250 386.040131,461.375000 
	C384.604431,461.428986 383.307190,462.011780 382.958740,463.458740 
	C382.526550,465.253662 383.796021,466.258514 385.287720,466.767700 
	C387.800781,467.625458 390.376251,468.298523 392.915009,469.083252 
	C396.248352,470.113647 399.654755,470.970490 402.880981,472.271027 
	C408.810181,474.661102 412.849304,478.591339 413.436615,485.485870 
	C414.057892,492.778717 411.760193,498.573151 405.702606,502.741180 
	C397.269073,508.543915 387.854584,508.404175 378.323761,506.950256 
	C372.868805,506.118103 367.758423,504.033936 362.735596,501.793335 
	C360.165802,500.646973 359.144470,498.915070 360.797302,496.262878 
	C360.972656,495.981506 361.090881,495.665222 361.254852,495.376038 
	C363.051025,492.208130 364.127655,487.870544 366.845490,486.193054 
	C369.787170,484.377350 372.821747,488.622009 376.058411,489.697784 
	C379.719116,490.914490 383.325073,492.134888 387.219360,491.979370 
	C389.387207,491.892761 391.980560,491.798553 392.366486,489.086304 
	C392.781189,486.172272 390.117157,485.828857 388.058929,485.280090 
	C383.095795,483.956818 377.965363,483.443176 373.128418,481.424408 
	C366.021240,478.458130 362.089722,473.252930 362.058167,465.755615 
	C362.024750,457.822601 365.661652,451.701782 373.217621,448.371490 
	C382.872009,444.116394 392.774567,445.159973 402.597748,447.352539 
	C413.719269,449.834839 413.435150,449.925262 409.491302,460.509186 
	C407.712463,465.282898 405.646118,466.929779 400.883453,464.363464 
	C398.874023,463.280701 396.474457,462.921997 393.850342,462.133606 
z"/>
<path fill="#000000" opacity="1.000000" stroke="none" 
	d="
M594.300110,546.626953 
	C594.352051,542.303467 597.180664,541.969666 600.075073,541.324341 
	C602.974915,540.677795 604.487061,542.041992 605.704346,544.243958 
	C609.246948,550.652527 612.745239,557.085815 616.315857,563.478760 
	C617.101379,564.885254 617.551025,566.562744 619.474060,567.744690 
	C621.232361,562.534851 620.911316,557.208984 621.624939,552.060120 
	C621.989380,549.430908 621.875366,546.734192 622.256897,544.108643 
	C623.049133,538.656250 624.620056,537.699402 629.902405,538.892944 
	C632.049377,539.377991 633.205505,540.602905 632.966675,542.726562 
	C631.519470,555.593201 631.074890,568.573792 628.565796,581.322327 
	C628.163635,583.365601 627.984131,585.263000 625.236206,585.433716 
	C622.527100,585.602173 619.707397,587.137634 617.675049,583.773438 
	C613.805115,577.367310 609.766541,571.063049 605.809326,564.709473 
	C605.038208,563.471375 604.650879,561.943726 602.717590,561.034363 
	C601.915894,568.237183 601.142334,575.252625 600.351990,582.266235 
	C599.773438,587.400818 598.291443,588.490112 593.284241,587.953613 
	C588.485107,587.439514 589.564148,583.884888 589.876160,581.154358 
	C591.177185,569.768921 592.730469,558.412292 594.300110,546.626953 
z"/>
<path fill="#000000" opacity="1.000000" stroke="none" 
	d="
M478.055206,582.592651 
	C477.757812,587.617371 474.759338,588.253418 471.034241,587.950684 
	C468.725952,587.763123 467.232880,587.016785 467.534241,584.283325 
	C468.972137,571.241699 470.317322,558.189697 471.778595,545.150757 
	C472.158508,541.760620 475.210480,542.135742 477.500793,541.413513 
	C480.252563,540.545959 481.964569,541.616760 483.203094,543.993958 
	C486.510162,550.341492 489.839630,556.677368 493.175110,563.010071 
	C494.010834,564.596802 494.902710,566.153931 496.074646,568.279358 
	C498.444855,564.392517 497.957428,560.481995 498.545502,556.889587 
	C499.268066,552.475586 499.414398,547.965271 499.766571,543.493225 
	C500.005768,540.456360 500.914062,538.343140 504.646912,538.897339 
	C507.796906,539.365112 510.694031,539.704407 510.224304,544.091675 
	C508.897888,556.479736 507.950836,568.911987 505.766205,581.196533 
	C505.343719,583.572083 504.769440,585.734985 501.735962,586.084045 
	C498.606873,586.444092 495.843231,586.484924 493.998932,583.197937 
	C489.862457,575.825928 485.558624,568.547668 480.000092,561.306458 
	C479.370361,568.255981 478.740601,575.205444 478.055206,582.592651 
z"/>
<path fill="#000000" opacity="1.000000" stroke="none" 
	d="
M529.561157,555.584229 
	C526.895752,559.056885 524.671082,562.394775 523.743652,566.368347 
	C522.877014,570.081238 522.886780,573.720398 526.090088,576.493896 
	C529.227356,579.210205 532.646790,578.341614 535.946228,576.890991 
	C538.132996,575.929565 540.547058,575.077637 541.779602,572.162903 
	C538.408569,570.850769 533.818542,572.218323 533.157654,566.934753 
	C532.825439,564.278870 532.972717,562.877441 535.907654,562.392761 
	C541.814148,561.417419 547.693848,560.270325 553.564880,559.095276 
	C555.676575,558.672607 557.304932,558.991455 557.764709,561.305115 
	C558.234009,563.667114 559.513367,566.751282 556.447327,567.897766 
	C552.992920,569.189392 552.721497,571.739136 552.317505,574.549683 
	C551.796936,578.170959 551.340149,581.803345 550.721985,585.408020 
	C549.491821,592.581787 548.498596,593.120178 540.987244,590.794861 
	C540.768005,589.296082 540.535522,587.706665 540.282227,585.974854 
	C536.142273,586.750427 532.537354,588.794861 528.366028,587.809509 
	C516.721436,585.058960 510.512970,574.106201 514.442993,562.359009 
	C518.252441,550.972229 526.009644,543.088562 537.082642,538.476624 
	C540.446167,537.075745 543.946228,537.330078 547.424744,537.848816 
	C551.865540,538.511230 552.433533,541.742371 551.950134,545.317505 
	C551.382202,549.517395 548.325562,548.209595 545.767578,547.806030 
	C538.742615,546.697693 534.275085,551.020752 529.561157,555.584229 
z"/>
<path fill="#000000" opacity="1.000000" stroke="none" 
	d="
M439.351929,588.507935 
	C429.289276,590.310852 425.748322,586.810425 427.252777,577.378296 
	C428.504089,569.533203 429.569183,561.652161 430.439117,553.756470 
	C430.684784,551.526306 429.932373,549.191040 429.676147,546.899658 
	C429.303436,543.566711 430.928253,542.046021 434.167023,541.699402 
	C442.426758,540.815735 450.672272,539.799866 458.926575,538.864075 
	C461.699829,538.549622 463.907867,538.963074 464.050598,542.534363 
	C464.180359,545.781006 464.112915,548.574341 459.773193,548.835388 
	C455.795532,549.074768 451.822449,549.522400 447.872589,550.062805 
	C440.805695,551.029663 440.224335,551.819763 440.474396,559.440796 
	C445.576019,560.652954 450.513947,557.816528 455.553986,558.487000 
	C457.823975,565.886230 456.930969,567.406921 449.985107,568.316711 
	C448.174988,568.553772 446.386108,568.948792 444.579102,569.214417 
	C437.980316,570.184448 437.586884,570.696594 438.028015,578.259949 
	C442.526062,578.662048 446.749359,576.864624 451.130219,576.410583 
	C452.943695,576.222656 454.736176,575.835754 456.548859,575.635437 
	C459.137451,575.349243 461.188232,575.724304 461.259918,579.096069 
	C461.323273,582.074585 461.505707,584.730896 457.453278,585.318970 
	C451.536407,586.177612 445.669312,587.379211 439.351929,588.507935 
z"/>
<path fill="#000000" opacity="1.000000" stroke="none" 
	d="
M669.967407,584.908142 
	C662.204956,586.422180 654.848083,587.804016 647.466675,589.038574 
	C641.039917,590.113464 637.316101,586.664490 637.594604,580.144165 
	C637.956177,571.681335 639.314819,563.340271 641.095886,555.097656 
	C641.774048,551.959656 640.381836,549.234009 640.586914,546.240173 
	C640.769226,543.577637 641.823730,542.209229 644.353027,541.894043 
	C652.607178,540.865479 660.860840,539.829834 669.123596,538.874023 
	C672.033936,538.537354 674.402405,538.869324 674.409485,542.849792 
	C674.415649,546.305603 673.947083,548.630005 669.659851,548.602539 
	C666.186035,548.580322 662.688232,549.125732 659.235474,549.646851 
	C651.630188,550.794800 651.639038,550.853455 650.959167,559.056824 
	C654.544128,560.892700 657.991211,558.748047 661.471680,558.436462 
	C663.834167,558.224976 666.369385,557.273376 666.758911,560.861389 
	C667.085999,563.874939 667.431030,567.041260 663.084900,567.675598 
	C659.796387,568.155579 656.546936,568.931580 653.249817,569.316162 
	C650.070251,569.687134 648.532654,571.234680 648.282898,574.438110 
	C648.026062,577.731934 648.900208,579.009277 652.518799,578.269409 
	C658.472107,577.052185 664.423157,575.436340 670.846252,575.666626 
	C671.295410,579.029053 672.077087,581.907959 669.967407,584.908142 
z"/>
<path fill="#000000" opacity="1.000000" stroke="none" 
	d="
M567.912720,557.297546 
	C568.798767,553.485474 569.816589,550.299133 564.228638,550.097412 
	C561.382385,549.994751 561.883972,546.955688 561.729858,544.867249 
	C561.581482,542.857178 562.024963,541.131531 564.414551,540.848389 
	C570.684631,540.105347 576.958191,539.387878 583.237000,538.722778 
	C585.749512,538.456543 587.538879,539.197510 587.306213,542.224365 
	C587.113892,544.727173 588.196838,548.119690 584.033997,548.194031 
	C579.359558,548.277466 578.404602,550.779419 578.130920,554.913696 
	C577.672424,561.840759 576.536865,568.723083 575.661255,575.826782 
	C576.669678,576.083740 577.284119,576.407837 577.868042,576.359924 
	C580.282349,576.161926 583.062317,574.980103 583.304749,579.142883 
	C583.508911,582.647339 583.699341,585.768066 578.775208,586.184204 
	C573.484497,586.631409 568.225037,587.534241 562.980347,588.408752 
	C559.511719,588.987061 558.627869,587.069641 558.281494,584.237610 
	C557.946289,581.497253 558.051575,578.933838 561.582153,578.830078 
	C564.940918,578.731323 565.612000,576.930298 565.861206,574.044556 
	C566.332214,568.588318 567.162415,563.163086 567.912720,557.297546 
z"/>
<path fill="#000000" opacity="1.000000" stroke="none" 
	d="
M747.624146,559.909180 
	C751.031006,559.863708 752.920837,560.939392 752.739807,564.261963 
	C752.554260,567.666260 750.266846,568.133423 747.518250,568.131531 
	C729.215759,568.119263 710.913330,568.149597 692.610840,568.131287 
	C690.127258,568.128784 687.257568,568.404114 687.184570,564.680054 
	C687.111084,560.936951 689.515381,559.956726 692.762512,559.956482 
	C710.898621,559.954895 729.034668,559.922668 747.624146,559.909180 
z"/>
<path fill="#000000" opacity="1.000000" stroke="none" 
	d="
M392.000000,568.170410 
	C383.184998,568.170776 374.869873,568.148743 366.554993,568.180481 
	C363.591797,568.191772 361.202637,567.682678 361.271667,563.923340 
	C361.340332,560.185303 363.767242,559.782166 366.702881,559.786377 
	C382.002472,559.808350 397.302124,559.785339 412.601776,559.765076 
	C415.750122,559.760925 418.299774,560.380493 418.159637,564.369019 
	C418.020355,568.333801 415.146088,568.150330 412.456024,568.163940 
	C405.804169,568.197632 399.152039,568.171448 392.000000,568.170410 
z"/>
<path fill="#000000" opacity="1.000000" stroke="none" 
	d="
M291.180054,590.976562 
	C288.472900,590.839783 286.012146,591.670227 284.212036,589.506897 
	C284.743835,587.076172 286.675995,586.979919 288.494324,586.973755 
	C300.469055,586.933289 312.444000,586.946655 324.418854,586.964478 
	C325.743622,586.966492 327.125519,586.975220 327.995300,588.713867 
	C326.007751,591.494629 322.821808,590.978943 320.090820,591.018677 
	C310.613586,591.156433 301.132263,591.012085 291.180054,590.976562 
z"/>
<path fill="#000000" opacity="1.000000" stroke="none" 
	d="
M304.001160,431.242737 
	C297.074951,430.867401 290.492401,432.223083 284.063293,430.278137 
	C284.683075,427.303894 286.490723,427.294708 288.089142,427.274689 
	C300.009155,427.125153 311.929993,427.033142 323.850769,426.956421 
	C325.455170,426.946106 327.665070,426.600769 327.850555,428.805359 
	C328.077698,431.504639 325.632538,431.234039 323.896057,431.249451 
	C317.431549,431.306854 310.966034,431.252716 304.001160,431.242737 
z"/>
<path fill="#000000" opacity="1.000000" stroke="none" 
	d="
M291.958038,445.408661 
	C290.338196,443.098846 291.679810,442.186066 293.306396,442.166687 
	C301.929138,442.063904 310.554230,442.125183 319.177917,442.201050 
	C319.997742,442.208282 320.666534,442.861877 321.099365,444.983978 
	C311.528473,447.325348 301.889801,446.183411 291.958038,445.408661 
z"/>
<path fill="#000000" opacity="1.000000" stroke="none" 
	d="
M300.017273,434.778687 
	C308.328369,435.149261 316.265198,433.990723 325.213165,435.688019 
	C320.640900,439.017365 291.392670,439.099030 286.777985,436.259979 
	C291.193817,433.902649 295.506226,435.247833 300.017273,434.778687 
z"/>
<path fill="#000000" opacity="1.000000" stroke="none" 
	d="
M321.407227,583.270264 
	C310.057312,583.287964 299.144073,583.287964 288.049408,583.287964 
	C288.533142,579.855225 290.189453,579.934631 291.613556,579.922302 
	C301.385437,579.837585 311.157837,579.797852 320.930115,579.789795 
	C322.221802,579.788757 323.829590,579.719788 324.141693,581.421753 
	C324.452728,583.118103 322.957306,583.062561 321.407227,583.270264 
z"/>
<path fill="#000000" opacity="1.000000" stroke="none" 
	d="
M300.044342,572.609131 
	C305.151825,572.435852 309.776428,572.227234 314.403290,572.103943 
	C316.781525,572.040588 319.309814,571.688599 321.104736,574.001221 
	C317.770081,577.028564 295.022430,577.197998 291.307007,574.344299 
	C293.614777,571.479675 296.818420,573.060730 300.044342,572.609131 
z"/>
<path fill="#000000" opacity="1.000000" stroke="none" 
	d="
M303.152527,487.780975 
	C306.931152,487.777771 310.235260,487.729797 313.537048,487.796387 
	C314.998779,487.825867 316.855835,487.817688 316.937927,489.805084 
	C317.033600,492.121460 315.017456,492.202545 313.383057,492.232269 
	C308.925110,492.313293 304.464691,492.290131 300.005554,492.261658 
	C298.308655,492.250793 296.401978,492.115448 296.391754,489.869476 
	C296.382324,487.792969 298.251740,487.938019 299.705200,487.835205 
	C300.692108,487.765442 301.686157,487.796722 303.152527,487.780975 
z"/>
<path fill="#000000" opacity="1.000000" stroke="none" 
	d="
M302.158203,564.826172 
	C307.711670,565.510132 313.193054,563.239014 317.913025,567.098206 
	C310.190918,569.185974 302.480530,568.259277 294.151978,567.934753 
	C296.059906,563.527832 299.268799,565.322205 302.158203,564.826172 
z"/>
<path fill="#000000" opacity="1.000000" stroke="none" 
	d="
M307.994812,493.613159 
	C310.689789,493.846069 313.107208,492.905914 315.471771,494.799133 
	C314.352295,499.886475 310.149384,498.319855 307.180573,498.187225 
	C303.794708,498.035980 299.024872,500.275696 297.353851,494.311340 
	C300.987671,492.919861 304.320709,494.001526 307.994812,493.613159 
z"/>
<path fill="#000000" opacity="1.000000" stroke="none" 
	d="
M301.146240,449.720856 
	C305.774292,449.726837 309.924866,449.702393 314.074432,449.757233 
	C315.373138,449.774353 317.049561,449.693726 317.186401,451.467773 
	C317.334442,453.387360 315.629425,453.329620 314.341400,453.335724 
	C308.697479,453.362396 303.053040,453.333496 297.409149,453.285217 
	C296.073578,453.273743 294.676178,453.205658 294.446899,451.219360 
	C295.970978,448.707458 298.557312,450.102173 301.146240,449.720856 
z"/>
<path fill="#000000" opacity="1.000000" stroke="none" 
	d="
M311.543396,499.942993 
	C313.680634,501.536407 312.799774,503.012451 311.427673,503.631226 
	C308.325012,505.030396 304.956787,504.754608 301.725647,503.989990 
	C300.592590,503.721893 299.991425,502.440552 300.167877,501.179413 
	C300.366089,499.763031 301.596619,499.283630 302.741516,499.301880 
	C305.546600,499.346588 308.347961,499.624023 311.543396,499.942993 
z"/>
<path fill="#000000" opacity="1.000000" stroke="none" 
	d="
M308.554382,505.979340 
	C310.849792,507.779114 310.550812,509.467987 308.333405,510.157410 
	C306.212250,510.816895 303.633514,511.232880 302.307892,508.489166 
	C301.677734,507.184937 302.339355,506.147339 303.719696,505.960114 
	C305.173157,505.762970 306.669830,505.884369 308.554382,505.979340 
z"/>
</svg>